<?xml version="1.0" encoding="UTF-8" standalone="no"?>
<!-- Created with Inkscape (http://www.inkscape.org/) -->

<svg
   width="28.5mm"
   height="28mm"
   viewBox="0 0 28.5 28"
   version="1.1"
   id="svg5"
   inkscape:version="1.1.2 (0a00cf5339, 2022-02-04)"
   sodipodi:docname="uni-doc-processor-symbol.svg"
   inkscape:export-filename="/home/nmp/work/any-markup-2-any-backend/uni-publisher-mvp/doc/images/uni-doc-processor-symbol.png"
   inkscape:export-xdpi="300"
   inkscape:export-ydpi="300"
   xmlns:inkscape="http://www.inkscape.org/namespaces/inkscape"
   xmlns:sodipodi="http://sodipodi.sourceforge.net/DTD/sodipodi-0.dtd"
   xmlns="http://www.w3.org/2000/svg"
   xmlns:svg="http://www.w3.org/2000/svg">
  <sodipodi:namedview
     id="namedview7"
     pagecolor="#ffffff"
     bordercolor="#666666"
     borderopacity="1.0"
     inkscape:pageshadow="2"
     inkscape:pageopacity="0.0"
     inkscape:pagecheckerboard="0"
     inkscape:document-units="mm"
     showgrid="false"
     showguides="true"
     inkscape:guide-bbox="true"
     inkscape:zoom="3.6203867"
     inkscape:cx="-11.18665"
     inkscape:cy="54.27597"
     inkscape:window-width="1850"
     inkscape:window-height="902"
     inkscape:window-x="0"
     inkscape:window-y="0"
     inkscape:window-maximized="1"
     inkscape:current-layer="layer1" />
  <defs
     id="defs2" />
  <g
     inkscape:label="Layer 1"
     inkscape:groupmode="layer"
     id="layer1"
     style="display:inline">
    <rect
       style="fill:#ffffff;fill-opacity:1;stroke:none;stroke-width:0.31204;stroke-miterlimit:4;stroke-dasharray:1.24817, 0.31204;stroke-dashoffset:0"
       id="rect74965"
       width="28.5"
       height="28"
       x="-3.5527137e-15"
       y="0" />
    <g
       id="g1318"
       transform="translate(-23.16374,-95.508452)">
      <g
         aria-label="U"
         id="text36294"
         style="font-size:32.8399px;line-height:1.25;letter-spacing:0px;word-spacing:0px;fill:#ffffff;stroke:#aa0000;stroke-width:0.705556;stroke-miterlimit:4;stroke-dasharray:none">
        <path
           d="m 34.745345,121.84041 c -3.110811,0 -5.573681,-0.759 -7.230642,-2.27699 -1.646271,-1.51799 -2.469406,-3.68807 -2.469406,-6.51025 V 98.92624 h 4.941316 v 13.75812 c 0,1.78525 0.422258,3.14289 1.266774,4.07292 0.855206,0.91935 1.973968,1.37902 3.620239,1.37902 1.689031,0 2.886225,-0.48105 3.794882,-1.44316 0.908656,-0.9728 1.358999,-2.36251 1.362985,-4.16913 V 98.92624 h 4.999421 v 13.8864 c 0,2.86494 -0.887276,5.08848 -2.661828,6.67061 -1.763861,1.57144 -4.416719,2.35716 -7.623741,2.35716 z"
           style="font-weight:bold;font-family:'Liberation Sans';-inkscape-font-specification:'Liberation Sans Bold';fill:#ffffff;stroke:#aa0000;stroke-width:0.705556;stroke-miterlimit:4;stroke-dasharray:none"
           id="path71715"
           sodipodi:nodetypes="scsccscscsccscs" />
      </g>
      <g
         aria-label="U"
         id="text36294-2"
         style="font-size:32.8399px;line-height:1.25;letter-spacing:0px;word-spacing:0px;fill:#ffffff;stroke:#aa0000;stroke-width:0.705556;stroke-miterlimit:4;stroke-dasharray:none"
         transform="translate(4.941316)">
        <path
           d="m 34.745345,121.84041 c -3.110811,0 -5.573681,-0.759 -7.230642,-2.27699 -1.646271,-1.51799 -2.469406,-3.68807 -2.469406,-6.51025 V 98.92624 h 4.941316 v 13.75812 c 0,1.78525 0.422258,3.14289 1.266774,4.07292 0.855206,0.91935 1.973968,1.37902 3.620239,1.37902 1.689031,0 2.886225,-0.48105 3.794882,-1.44316 0.908656,-0.9728 1.358999,-2.36251 1.362985,-4.16913 V 98.92624 h 4.999421 v 13.8864 c 0,2.86494 -0.887276,5.08848 -2.661828,6.67061 -1.763861,1.57144 -4.416719,2.35716 -7.623741,2.35716 z"
           style="font-weight:bold;font-family:'Liberation Sans';-inkscape-font-specification:'Liberation Sans Bold';fill:#ffffff;stroke:#aa0000;stroke-width:0.705556;stroke-miterlimit:4;stroke-dasharray:none"
           id="path71715-7"
           sodipodi:nodetypes="scsccscscsccscs" />
      </g>
      <rect
         style="fill:#ffffff;fill-opacity:1;stroke:none;stroke-width:0.705556;stroke-miterlimit:4;stroke-dasharray:none"
         id="rect72673"
         width="26.194553"
         height="2.0939736"
         x="24.316463"
         y="96.823715" />
      <rect
         style="fill:#ffffff;fill-opacity:1;stroke:none;stroke-width:0.848202;stroke-miterlimit:4;stroke-dasharray:none"
         id="rect72673-3"
         width="4.2372451"
         height="0.91403735"
         x="40.383183"
         y="98.694633" />
      <rect
         style="fill:#ffffff;fill-opacity:1;stroke:none;stroke-width:0.847952;stroke-miterlimit:4;stroke-dasharray:none"
         id="rect72673-3-6"
         width="4.2347445"
         height="0.91403735"
         x="30.339712"
         y="98.694649" />
      <ellipse
         style="fill:#ffffff;fill-opacity:1;stroke:#aa0000;stroke-width:0.705556;stroke-miterlimit:4;stroke-dasharray:none"
         id="path72296"
         cx="27.521517"
         cy="98.937866"
         rx="2.4773514"
         ry="1.5586983" />
      <ellipse
         style="fill:#ffffff;fill-opacity:1;stroke:#aa0000;stroke-width:0.705556;stroke-miterlimit:4;stroke-dasharray:none"
         id="path72296-0"
         cx="37.496502"
         cy="98.937866"
         rx="2.5231762"
         ry="1.5545396" />
      <ellipse
         style="fill:#ffffff;fill-opacity:1;stroke:#aa0000;stroke-width:0.705556;stroke-miterlimit:4;stroke-dasharray:none"
         id="path72296-9"
         cx="47.496517"
         cy="98.937866"
         rx="2.4773514"
         ry="1.5586983" />
    </g>
  </g>
</svg>
